<svg version="1.1" id="Layer_1" xmlns="http://www.w3.org/2000/svg" xmlns:xlink="http://www.w3.org/1999/xlink" x="0px" y="0px"
	 width="100%" viewBox="0 0 1024 406" enable-background="new 0 0 1024 406" xml:space="preserve">
<path fill="#37A95C" opacity="1.000000" stroke="none" 
	d="
M622.521545,220.425659 
	C618.107910,193.776199 622.973022,169.759659 639.148987,148.224503 
	C660.166260,120.244011 701.428833,110.902405 729.972351,128.227020 
	C734.724670,131.111450 738.721130,135.313385 742.799866,139.187653 
	C743.906189,140.238495 744.036255,142.317108 744.614380,143.923981 
	C745.744507,143.256912 746.874634,142.589844 748.004761,141.922760 
	C748.004761,137.922897 748.234009,133.906036 747.939270,129.928009 
	C747.653259,126.068123 748.804199,124.673248 752.904968,124.786369 
	C763.393372,125.075691 773.897339,125.006210 784.390198,124.814034 
	C787.862976,124.750420 788.971069,125.803230 788.960327,129.332703 
	C788.807251,179.481079 789.412476,229.641418 788.489746,279.774109 
	C787.943848,309.434662 776.555359,335.063171 749.417175,349.641296 
	C716.472473,367.338501 683.054016,365.786743 651.227844,345.631836 
	C638.183960,337.371368 628.180908,323.699646 625.441772,312.500427 
	C636.613831,308.013641 647.849976,303.480499 659.103027,298.989929 
	C665.378723,296.485565 665.209473,296.623718 668.644958,302.510742 
	C677.076050,316.958069 689.942688,323.606781 706.490906,323.050476 
	C723.071716,322.493042 735.518616,314.977417 742.742126,299.866882 
	C748.283203,288.275818 748.438293,275.831177 747.699158,262.138031 
	C745.814087,263.364319 744.481934,263.869873 743.661133,264.818146 
	C726.563232,284.570343 704.476196,288.933777 680.522766,283.145996 
	C648.902771,275.505737 631.171509,253.431519 623.064697,222.788773 
	C622.894409,222.145035 622.760559,221.491638 622.521545,220.425659 
M669.088318,224.346329 
	C680.301270,244.847961 704.369385,252.329636 725.208252,241.791397 
	C740.566162,234.024933 749.369385,217.472778 747.793457,198.511185 
	C745.745117,173.865341 727.771240,157.472107 704.644043,158.420380 
	C667.880066,159.927811 655.931030,199.009521 669.088318,224.346329 
z"/>
<path fill="#4587F4" opacity="1.000000" stroke="none" 
	d="
M552.852356,127.302612 
	C552.552246,124.199928 552.123291,121.550903 552.116150,118.900742 
	C552.059631,97.901421 552.180664,76.901024 551.996094,55.903168 
	C551.961426,51.955273 553.063538,50.719604 557.048889,50.808384 
	C568.209717,51.057003 579.381592,51.010700 590.544922,50.826202 
	C594.038452,50.768471 595.104309,51.882877 595.100403,55.379932 
	C595.016724,130.377960 595.015198,205.376129 595.105896,280.374115 
	C595.110352,284.046692 594.101685,285.332336 590.313416,285.248291 
	C579.985413,285.019135 569.646667,285.041687 559.317261,285.236908 
	C555.741089,285.304474 554.638733,284.017242 554.803223,280.588837 
	C555.029541,275.869507 554.859924,271.131134 554.859924,266.400940 
	C554.319336,266.223358 553.778809,266.045776 553.238220,265.868164 
	C552.289673,266.791473 551.200134,267.608673 550.413635,268.653900 
	C537.707336,285.540222 520.170959,291.142731 499.889435,290.348969 
	C459.453583,288.766449 427.968506,253.090012 426.188416,210.366943 
	C425.049896,183.042084 432.952209,159.078827 452.985840,139.810196 
	C473.853912,119.739006 505.526672,113.490967 530.688904,125.519608 
	C537.920776,128.976776 543.631958,135.629349 549.996155,140.870575 
	C550.873962,141.593460 551.467896,142.653290 552.256348,143.498352 
	C552.429016,143.683441 552.871033,143.617294 554.303894,143.840561 
	C553.828857,138.323883 553.373901,133.039825 552.852356,127.302612 
M549.396240,182.207565 
	C549.052795,181.637085 548.699402,181.072342 548.367310,180.495316 
	C534.589233,156.554382 502.322052,152.052658 482.449341,171.300262 
	C462.321106,190.795319 465.171173,227.225113 488.089264,243.390793 
	C504.431854,254.918259 530.144348,252.361252 542.416138,237.853851 
	C556.566650,221.125458 558.243408,202.647568 549.396240,182.207565 
z"/>
<path fill="#4587F4" opacity="1.000000" stroke="none" 
	d="
M48.008965,159.000000 
	C48.008972,122.886398 48.008972,87.272789 48.008972,51.278015 
	C97.706169,51.278015 146.890488,51.278015 196.709183,51.278015 
	C196.709183,60.778675 196.703568,70.063774 196.710510,79.348862 
	C196.720627,92.859070 196.724472,92.859039 183.141022,92.859070 
	C154.818649,92.859138 126.495476,92.965950 98.174652,92.756287 
	C93.346497,92.720551 91.903969,94.131783 91.994942,98.946480 
	C92.278122,113.935333 92.310745,128.937607 91.980125,143.924515 
	C91.869019,148.961273 93.646942,149.956787 98.272713,149.923737 
	C125.594086,149.728424 152.918106,149.913528 180.239777,149.740234 
	C184.604797,149.712540 186.399719,150.564728 186.211731,155.432007 
	C185.813416,165.745956 185.850906,176.094086 186.199463,186.411636 
	C186.354874,191.011871 184.728241,191.910950 180.481308,191.883087 
	C153.159714,191.703842 125.835388,191.910187 98.514503,191.683182 
	C93.559402,191.642014 91.928604,192.840836 91.978035,198.040375 
	C92.236183,225.194077 91.976379,252.352615 92.212479,279.506714 
	C92.254028,284.285492 90.711845,285.380768 86.253601,285.263947 
	C75.265404,284.976013 64.260483,284.996887 53.270943,285.257965 
	C49.139431,285.356110 47.905499,284.141327 47.920948,279.952026 
	C48.068977,239.801788 48.009178,199.650787 48.008965,159.000000 
z"/>
<path fill="#EA4639" opacity="1.000000" stroke="none" 
	d="
M952.614014,273.567017 
	C917.473145,301.857574 847.246521,297.261017 822.626770,242.511047 
	C801.945679,196.519897 822.112915,139.179413 872.953979,123.618629 
	C903.578308,114.245552 932.589722,118.785126 956.300293,142.245316 
	C971.390015,157.175659 976.958679,176.451706 978.301880,197.129227 
	C978.581604,201.435516 978.140808,205.784790 978.314209,210.102921 
	C978.476685,214.150726 976.615173,214.988968 972.875366,214.974121 
	C939.545349,214.841782 906.214539,214.897385 872.883972,214.897598 
	C867.933655,214.897629 862.983337,214.897614 857.589783,214.897614 
	C858.108398,224.899002 862.217468,232.410965 868.177002,239.209122 
	C882.863892,255.962631 920.037720,259.882141 937.370544,233.064880 
	C939.619873,229.584824 941.354065,229.241745 944.864746,231.116974 
	C953.238708,235.589905 961.850586,239.616577 970.353394,243.849609 
	C971.956116,244.647507 973.498474,245.566498 975.457825,246.643494 
	C969.847961,257.569916 962.069702,266.036896 952.614014,273.567017 
M922.493164,184.277267 
	C926.940186,184.277267 931.387207,184.277267 935.770813,184.277267 
	C936.847961,171.078964 921.427002,156.798203 904.949829,155.035324 
	C883.063293,152.693710 862.774658,165.638229 860.240723,184.277588 
	C880.723755,184.277588 901.109924,184.277588 922.493164,184.277267 
z"/>
<path fill="#EA4636" opacity="1.000000" stroke="none" 
	d="
M218.831192,147.000092 
	C218.832092,140.668045 218.936859,134.833328 218.790009,129.004959 
	C218.717255,126.117393 219.496017,124.783562 222.690140,124.826912 
	C233.519180,124.973862 244.352753,124.976357 255.181671,124.824524 
	C258.348724,124.780106 259.226196,126.024277 259.110168,128.957687 
	C258.939117,133.283295 259.031586,137.621246 259.088257,141.952927 
	C259.108459,143.497498 259.351196,145.039154 259.492371,146.582138 
	C259.925598,146.713989 260.358826,146.845856 260.792053,146.977707 
	C261.974274,145.553894 263.281250,144.215195 264.319824,142.693359 
	C277.365936,123.576988 304.532318,114.572182 325.375092,122.497246 
	C332.684692,125.276581 332.719940,125.407578 330.427399,132.985977 
	C327.346313,143.170990 324.321564,153.373077 321.189850,163.844543 
	C319.757538,163.555618 318.637665,163.441574 317.590790,163.102219 
	C289.725311,154.069489 267.086121,167.842545 262.670837,196.689560 
	C261.968842,201.275970 261.852600,205.984543 261.836365,210.637924 
	C261.755585,233.799408 261.700195,256.962097 261.888000,280.122345 
	C261.922363,284.363220 260.529785,285.553558 256.452118,285.467590 
	C245.625900,285.239441 234.786789,285.202118 223.963058,285.483398 
	C219.617493,285.596283 218.744736,283.950317 218.755615,279.971985 
	C218.876297,235.814941 218.831421,191.657440 218.831192,147.000092 
z"/>
<path fill="#FBBD09" opacity="1.000000" stroke="none" 
	d="
M371.004089,285.161743 
	C366.840240,285.161621 363.151550,284.900085 359.516632,285.230347 
	C355.385071,285.605743 354.519531,283.819794 354.526794,280.057587 
	C354.623230,230.081253 354.637024,180.104568 354.507690,130.128387 
	C354.496857,125.942902 355.758392,124.716728 359.892242,124.812981 
	C371.047607,125.072739 382.214111,124.988632 393.373718,124.847931 
	C396.503662,124.808472 397.778687,125.595490 397.772461,129.014694 
	C397.679688,179.990570 397.709656,230.966644 397.697937,281.942688 
	C397.697754,282.749390 397.538330,283.556030 397.368896,285.161652 
	C388.671478,285.161652 380.087219,285.161652 371.004089,285.161743 
z"/>
<path fill="#FBBD0A" opacity="1.000000" stroke="none" 
	d="
M357.750610,96.254890 
	C347.419891,86.030632 345.582642,72.529312 352.707245,61.003330 
	C359.264893,50.394650 373.096222,45.539612 385.055786,49.648438 
	C397.417236,53.895336 405.202667,65.882431 403.632263,78.854980 
	C402.370087,89.281166 396.681885,96.840691 387.033630,100.866982 
	C376.649872,105.200165 366.834106,103.644798 357.750610,96.254890 
z"/>
</svg>